<?xml version="1.0" standalone="no"?>
<!DOCTYPE svg PUBLIC "-//W3C//DTD SVG 1.1//EN" "http://www.w3.org/Graphics/SVG/1.1/DTD/svg11.dtd" >
<svg xmlns="http://www.w3.org/2000/svg">
<metadata></metadata>
<defs>
<font id="Roadgeek2005SeriesERegular" horiz-adv-x="1013" >
<font-face units-per-em="2048" ascent="1638" descent="-410" />
<missing-glyph horiz-adv-x="473" />
<glyph horiz-adv-x="0" />
<glyph horiz-adv-x="2048" />
<glyph d="M127 1481h170q39 -129 212 -129t212 129h164q-20 -150 -120.5 -233t-260.5 -83t-257 83t-120 233z" />
<glyph d="M346 1318.5q0 61.5 48 106.5t112 45q63 0 110.5 -45t47.5 -106t-47.5 -107.5t-110.5 -46.5t-111.5 46t-48.5 107.5z" />
<glyph d="M233 1426.5q0 113.5 78 189.5t196 76t195.5 -76t77.5 -190t-77.5 -187.5t-195.5 -73.5t-196 74t-78 187.5zM387 1427q0 -49 35 -83.5t85 -34.5t85 34.5t35 83.5t-35 83t-85 34t-85 -33.5t-35 -83.5z" />
<glyph unicode="&#xa;" d="M66 1165l176 316h354l-295 -316h-235zM510 1165l176 316h356l-294 -316h-238z" />
<glyph d="M309 -215q0 115 156 215h121q-104 -115 -105 -195q0 -59 74 -59t160 47l53 -80q-125 -92 -256 -92q-203 0 -203 164z" />
<glyph d="M117 1481h188l203 -148l203 148h184l-246 -316h-284z" />
<glyph unicode="&#xd;" horiz-adv-x="499" d="M129 0v1001h246v-1001h-246z" />
<glyph horiz-adv-x="1443" d="M0 0l1198 2060h246l-1198 -2060h-246z" />
<glyph horiz-adv-x="1101" d="M53 760v237h129v125q0 129 59.5 189.5t186.5 60.5q75 0 145 -10v-215q-29 4 -43 4h-30q-43 0 -59.5 -24.5t-16.5 -67.5v-62h149v-237h-149v-760h-242v760h-129zM727 1275q0 52 36 87t88 35t89 -35t37 -86t-37 -88t-89 -37t-88 36t-36 88zM731 0v1001h246v-1001h-246z" />
<glyph horiz-adv-x="1093" d="M53 760v237h129v125q0 129 59.5 189.5t186.5 60.5q75 0 145 -10v-215q-29 4 -43 4h-30q-43 0 -59.5 -24.5t-16.5 -67.5v-62h149v-237h-149v-760h-242v760h-129zM727 0v1294l246 103v-1397h-246z" />
<glyph horiz-adv-x="1261" d="M74 608.5q0 16.5 16 30.5l436 385q31 27 60 -3q10 -11 10 -27.5t-16 -30.5l-437 -385q-32 -28 -59 2q-10 12 -10 28.5zM178 0v1372h246v-1161h780v-211h-1026z" />
<glyph horiz-adv-x="491" d="M28 582q-29 33 3 59l391 381q14 14 31.5 12t28 -12t11.5 -26.5t-14 -30.5l-391 -381q-34 -30 -60 -2zM125 0v1294l246 103v-1397h-246z" />
<glyph horiz-adv-x="1271" d="M96 0v279l781 851h-738v242h1037v-278l-777 -848h777v-246h-1080zM246 1852h188l203 -148l203 148h184l-246 -316h-284z" />
<glyph horiz-adv-x="952" d="M43 0v217l506 543h-481v241h847v-196l-534 -569h534v-236h-872zM90 1481h188l203 -148l203 148h184l-246 -316h-284z" />
<glyph unicode=" "  horiz-adv-x="473" />
<glyph unicode="&#x09;" horiz-adv-x="473" />
<glyph unicode="&#xa0;" horiz-adv-x="473" />
<glyph unicode="!" horiz-adv-x="606" d="M182 102q0 53 36 88t88 35t87 -35t35 -88t-35 -90t-87 -37t-88 37t-36 90zM182 977v395h242v-389l-68 -602h-114z" />
<glyph unicode="&#x22;" horiz-adv-x="1048" d="M178 1372h264l-43 -549h-178zM606 1372h266l-38 -549h-185z" />
<glyph unicode="#" horiz-adv-x="1353" d="M82 395l29 197h217l32 213h-210l28 196h211l60 371h221l-58 -371h222l57 371h221l-57 -371h211l-29 -196h-211l-35 -213h217l-28 -197h-217l-62 -395h-231l67 395h-217l-63 -395h-221l63 395h-217zM553 592h217l29 213h-217z" />
<glyph unicode="$" horiz-adv-x="1300" d="M96 250l197 153q78 -90 164 -131t209.5 -41t207.5 50.5t84 130.5t-86 123q-111 42 -163 53l-64 18l-63 15l-66 20q-106 25 -166.5 54.5t-103.5 77.5q-86 96 -86 237t96 239.5t260 126.5v213h244v-213q213 -33 381 -200l-183 -164q-129 135 -327 135q-104 0 -162.5 -38 t-58.5 -103q0 -58 44 -90q46 -32 178 -61q255 -54 360.5 -107.5t158.5 -144.5t53 -204q0 -209 -192 -321q-115 -70 -252 -82v-242h-244v246q-240 45 -420 250z" />
<glyph unicode="%" horiz-adv-x="1814" d="M260 990q0 134 78 236t220 101.5t220 -101t78 -234.5t-74 -228q-82 -109 -224 -109t-220 100.5t-78 234.5zM362 -16l979 1343h183l-979 -1343h-183zM430 990.5q0 -199.5 127 -197.5q127 0 127 198.5t-127 198.5t-127 -199.5zM1032 318q0 134 78 236t220 101.5t220 -101 t78 -234.5t-78 -235.5t-220 -101t-220 100.5t-78 234zM1202 319q0 -200 129 -198q127 0 127 199.5t-127 197.5q-74 0 -101.5 -57.5t-27.5 -141.5z" />
<glyph unicode="&#x26;" horiz-adv-x="1372" d="M135 369q0 210 196 348q34 24 103 67q-104 126 -124 222q-7 34 -7 87.5t26.5 111t74.5 99.5q98 87 251 87q145 0 242 -89q94 -87 94 -229q0 -104 -51 -188t-174 -162l178 -217q33 97 33 168h227q-10 -113 -34.5 -189.5t-75.5 -156.5l278 -328h-303l-121 145 q-95 -99 -158 -127q-106 -47 -209.5 -47t-183.5 30t-138 83q-124 113 -124 285zM381 381q0 -83 59 -139q61 -60 136.5 -60t127.5 30t109 101l-250 303q-182 -99 -182 -235zM530 1098q0 -56 33 -115q14 -18 43 -63q8 -6 15 -19l20 -20q129 84 129 188q0 59 -31.5 94t-85 35 t-88.5 -31.5t-35 -68.5z" />
<glyph unicode="'" horiz-adv-x="712" d="M260 1405h207l-51 -399h-105z" />
<glyph unicode="(" horiz-adv-x="645" d="M135 688q0 460 211 684h246q-207 -317 -207 -684q0 -373 207 -688h-246q-162 162 -200 507q-11 95 -11 181z" />
<glyph unicode=")" horiz-adv-x="645" d="M53 0q211 319 211 683.5t-207 688.5h242q211 -228 211 -684q0 -323 -109 -544q-41 -83 -102 -144h-246z" />
<glyph unicode="*" horiz-adv-x="972" d="M111 1020l63 213q53 -16 108.5 -26.5t98.5 -37.5q-18 55 -16 98.5t2 104.5h249q0 -134 -14 -207q35 25 82 35t115 27l63 -211q-135 -40 -192 -47q41 -27 64.5 -61t64.5 -85q-81 -62 -183 -135q0 -2 -15 17.5t-35 46.5q-59 75 -70 100q-32 -57 -129 -164l-189 131 q23 31 43 58q36 48 82 92q-47 6 -96 21.5t-96 29.5z" />
<glyph unicode="+" horiz-adv-x="972" d="M43 578v245h324v307h245v-307h322v-245h-322v-314h-245v314h-324z" />
<glyph unicode="," horiz-adv-x="360" d="M53 95q0 50 32 90t88 40t95 -43t39 -114q0 -144 -104 -232l-78 39q49 49 68 100h-15q-53 0 -89 35t-36 85z" />
<glyph unicode="-" horiz-adv-x="567" d="M43 553v246h481v-246h-481z" />
<glyph unicode="." horiz-adv-x="366" d="M53 111.5q0 52.5 39 91.5t92 39t91 -39t38 -91t-37.5 -89t-91 -37t-92.5 36.5t-39 89z" />
<glyph unicode="/" horiz-adv-x="952" d="M8 -176l660 1724h276l-659 -1724h-277z" />
<glyph unicode="0" horiz-adv-x="1507" d="M178 688q0 296 138 490q158 219 440 219q283 0 440 -223q133 -189 133 -482q0 -131 -31.5 -259t-100.5 -231q-153 -227 -441 -227q-289 0 -442 221q-136 196 -136 492zM424 668.5q0 -203.5 88 -325.5t244 -122q149 0 239 131q88 127 87.5 341t-86 336t-240.5 122 q-169 0 -258 -153q-74 -126 -74 -329.5z" />
<glyph unicode="1" horiz-adv-x="727" d="M135 1223q80 18 128 51t89 98h197v-1372h-242l6 1026h-174z" />
<glyph unicode="2" horiz-adv-x="1300" d="M96 0q0 123 25.5 220t101.5 224q161 271 529 369q117 33 161.5 73t44.5 108.5t-69.5 110.5t-202.5 42t-233.5 -36t-188.5 -114l-168 187q244 213 578 213q242 0 386 -111q144 -112 144 -299q0 -176 -139 -299q-83 -59 -178 -87.5t-141 -44t-80 -32.5q-171 -81 -271 -278 h809v-246h-1108z" />
<glyph unicode="3" horiz-adv-x="1300" d="M96 256l197 147q136 -178 381 -178q127 0 205.5 53.5t78.5 141.5q0 49 -29.5 100t-67.5 72q-66 35 -144 35h-68v245h60q78 0 130 38t52 97.5t-65.5 101.5t-176.5 42q-174 0 -303 -135l-182 168q207 213 500 213q207 0 342 -110q135 -111 135 -275q0 -70 -24.5 -126.5 t-86.5 -133.5q98 -86 128 -141q46 -83 46 -181t-42 -180t-114 -144q-156 -131 -389 -131q-274 0 -456 170q-53 45 -107 111z" />
<glyph unicode="4" horiz-adv-x="1478" d="M53 279v221l848 872h240v-872h202v-221h-202v-279h-240v279h-848zM367 500h534v549z" />
<glyph unicode="5" horiz-adv-x="1300" d="M96 129l129 209q184 -113 402 -113q156 0 243.5 64.5t87.5 181.5q0 55 -23.5 105.5t-62.5 82.5q-72 57 -207.5 57.5t-279.5 -52.5l-246 63l43 645h916l-4 -242h-680l-15 -196q163 35 272.5 35t208.5 -38t172 -105q152 -139 152 -355q0 -217 -162 -357 q-163 -139 -415 -139q-272 0 -531 154z" />
<glyph unicode="6" horiz-adv-x="1464" d="M178 545q0 217 94 397q128 247 388 372q121 58 232.5 70.5t201.5 12.5v-246h-25q-205 0 -342 -82q-94 -53 -153.5 -121.5t-110.5 -177.5q135 36 200.5 39.5t142.5 3.5t171 -30.5t162.5 -86t107.5 -131.5t39 -167t-39 -168.5t-109 -133.5q-148 -121 -378 -121 q-243 0 -418 150q-164 141 -164 420zM467 397q0 -78 78 -125t207 -47t208.5 46t79.5 124t-79.5 125t-208.5 47t-207 -46t-78 -124z" />
<glyph unicode="7" horiz-adv-x="1300" d="M53 1372h1112v-246q-35 -33 -57.5 -54t-38.5 -40q-37 -42 -53 -69q-134 -180 -232 -467q-58 -176 -69 -354q-4 -64 -6 -142h-246q6 241 25.5 334.5t45.5 189.5q61 219 189 434q23 48 111 172h-777z" />
<glyph unicode="8" horiz-adv-x="1300" d="M96 429q0 199 154 341q-66 76 -88.5 129t-22.5 130t37 146.5t104 118.5q142 103 369 103q232 0 371 -103q141 -104 141 -274q0 -68 -22.5 -121t-83.5 -129q149 -137 149 -332q0 -232 -171 -354q-153 -109 -384 -109q-252 0 -402.5 127.5t-150.5 326.5zM342 438 q0 -51 26.5 -98t64.5 -70q77 -45 190.5 -45t170 13.5t93.5 46.5q71 65 71 160t-79.5 149.5t-228 54.5t-228.5 -54t-80 -157zM385 1024q0 -59 68.5 -94t196.5 -35t196.5 35t68.5 94t-68.5 93t-196.5 34t-196.5 -34t-68.5 -93z" />
<glyph unicode="9" horiz-adv-x="1300" d="M96 977q0 183 148 302q146 118 377 118q254 0 419 -146q164 -145 164 -417q0 -217 -91 -400.5t-271 -304.5q-115 -84 -243 -119t-306 -35v250h24q203 0 338 78q97 56 141 107q74 86 124 196q-146 -47 -283.5 -47t-231.5 32t-163 87q-146 118 -146 299zM342 979 q0 -78 79 -126t208 -48t207.5 48t78.5 125t-78.5 125t-207.5 48t-208 -47t-79 -125z" />
<glyph unicode=":" horiz-adv-x="466" d="M96 113.5q0 56.5 41 96.5t96 40t96.5 -40t41.5 -96t-41 -97.5t-96.5 -41.5t-96.5 41t-41 97.5zM96 656q0 56 41 97.5t96 41.5t96.5 -41.5t41.5 -97.5t-41 -96t-96.5 -40t-96.5 40t-41 96z" />
<glyph unicode=";" horiz-adv-x="466" d="M96 656q0 56 41 97.5t96 41.5t96.5 -41.5t41.5 -97.5t-41 -96t-96.5 -40t-96.5 40t-41 96zM106 95q0 50 32 90t88 40t95 -43t39 -114q0 -144 -104 -232l-78 39q52 52 68 100h-15q-53 0 -89 35t-36 85z" />
<glyph unicode="&#x3c;" horiz-adv-x="911" d="M115 582v184l671 528v-338l-378 -280l378 -283v-338z" />
<glyph unicode="=" horiz-adv-x="972" d="M43 375v246h891v-246h-891zM43 770v246h891v-246h-891z" />
<glyph unicode="&#x3e;" horiz-adv-x="911" d="M125 55v336l379 281l-379 282v340l672 -528v-184z" />
<glyph unicode="?" horiz-adv-x="1101" d="M96 938q7 183 80 279q138 184 397 184q195 0 313 -107q58 -51 89 -120.5t31 -139t-10.5 -113.5t-35.5 -86q-47 -76 -180 -186q-60 -47 -76 -69q-38 -50 -46 -104q-1 -11 -3 -24.5t-3 -32t-3 -48.5h-207q6 137 14.5 168.5t14.5 52.5q37 76 62.5 101.5t32.5 31.5t36 31 l47 49q111 96 111 207q0 66 -52.5 104.5t-155.5 38.5q-204 0 -220 -217h-236zM424 105q0 54 36 90t89 36t89 -35.5t36 -90t-36 -92.5t-89 -38t-89 38t-36 92z" />
<glyph unicode="@" horiz-adv-x="1650" d="M135 690.5q0 155.5 53.5 285.5t148.5 224q199 197 511 197q286 0 476 -173q187 -170 187 -444q0 -193 -104 -338q-109 -153 -256 -153q-102 0 -154 82q-97 -97 -231 -97q-137 0 -226 102q-87 99 -87 251q0 172 111 301q112 131 274 131q111 0 182 -72l10 47h203l-82 -442 q-14 -66 -14 -82q0 -43 24.5 -43t53 23.5t51.5 65.5q57 101 57 207.5t-33 186.5t-94 138q-128 120 -340 120q-230 0 -376 -148q-142 -144 -142 -376q0 -228 140 -374t388 -146q209 0 420 92l53 -188q-230 -97 -473 -97q-313 0 -520 197q-102 98 -156.5 232.5t-54.5 290z M674 641.5q0 -82.5 34.5 -121.5t77 -39t72 16.5t53 47t38 73t14.5 102t-32 94t-74 34.5t-73.5 -17.5t-56.5 -46.5q-53 -60 -53 -142.5z" />
<glyph unicode="A" horiz-adv-x="1511" d="M53 0l578 1372h250l573 -1372h-264l-135 324h-598l-133 -324h-271zM563 567h385l-192 463z" />
<glyph unicode="B" horiz-adv-x="1382" d="M178 0v1372h641q122 0 165.5 -17.5t70.5 -31.5q86 -49 137 -131t51 -180q0 -168 -135 -285q178 -129 178 -324q0 -104 -56 -199t-153.5 -149.5t-210.5 -54.5h-688zM428 246h391q98 0 159.5 48t61.5 125.5t-63 132t-158 54.5h-391v-360zM428 852h391q78 0 128 39t50 100 t-47 98t-131 37h-391v-274z" />
<glyph unicode="C" horiz-adv-x="1382" d="M135 688q0 327 156 516q159 193 426 193q166 0 308 -79t222 -224l-217 -117q-29 43 -48 63.5t-48 38.5q-41 33 -101.5 52.5t-135 19.5t-138 -42t-102.5 -107q-72 -121 -72 -327t88 -330t244 -124q88 0 141 29t90 62.5t82 82.5l217 -116q-72 -140 -220 -224 q-142 -80 -293.5 -80t-259 51.5t-183.5 144.5q-156 191 -156 517z" />
<glyph unicode="D" horiz-adv-x="1411" d="M178 0v1372h443q176 0 327 -86q328 -189 328 -599q0 -419 -332 -605q-144 -82 -323 -82h-443zM428 246h193q109 0 198 53q211 110 211 386t-203 388q-94 53 -206 53h-193v-880z" />
<glyph unicode="E" horiz-adv-x="1300" d="M178 0v1372h1002v-246h-752v-254h410v-251h-410v-375h776v-246h-1026z" />
<glyph unicode="F" horiz-adv-x="1261" d="M178 0v1372h1026v-246h-776v-278h428v-250h-428v-598h-250z" />
<glyph unicode="G" horiz-adv-x="1382" d="M135 688q0 314 156 512q155 197 411 197q186 0 312.5 -91.5t197.5 -250.5l-249 -86q-87 182 -261 182q-142 0 -232 -131q-89 -131 -89 -332q0 -313 163 -425q62 -42 135.5 -42t120 16.5t85.5 44.5q82 60 106 156h-225v246h481v-178q0 -221 -159 -377q-158 -154 -386 -154 q-282 0 -434 223q-133 195 -133 490z" />
<glyph unicode="H" horiz-adv-x="1464" d="M178 0v1372h246v-530h616v530h246v-1372h-246v602l-616 -4v-598h-246z" />
<glyph unicode="I" horiz-adv-x="602" d="M178 0v1372h246v-1372h-246z" />
<glyph unicode="J" horiz-adv-x="1275" d="M53 367l240 61q18 -53 38.5 -82t53.5 -57q90 -64 178 -64t154.5 40t101.5 102q33 72 33 186v819h246v-809q0 -209 -68 -321q-66 -121 -188.5 -194t-257.5 -73q-263 0 -424 199q-63 70 -107 193z" />
<glyph unicode="K" horiz-adv-x="1357" d="M178 0v1372h246v-598l485 598h318l-365 -448l453 -924h-281l-350 713l-260 -328v-385h-246z" />
<glyph unicode="L" horiz-adv-x="1261" d="M178 0v1372h246v-1161h780v-211h-1026z" />
<glyph unicode="M" horiz-adv-x="1642" d="M178 0v1372h242l399 -813l404 813h241v-1372h-241v838l-404 -838l-399 838v-838h-242z" />
<glyph unicode="N" horiz-adv-x="1464" d="M178 0v1372h242l629 -905v905h237v-1372h-213l-653 944v-944h-242z" />
<glyph unicode="O" horiz-adv-x="1425" d="M135 688q0 329 156 518q158 191 426 191q251 0 411 -195q158 -192 158 -511q0 -159 -40 -291t-114 -226q-155 -199 -415 -199q-283 0 -443 227q-139 198 -139 486zM385 686q0 -219 88 -342t244 -123q177 0 259 153q64 120 64 325.5t-84 328.5t-239 123q-156 0 -244 -123 t-88 -342z" />
<glyph unicode="P" horiz-adv-x="1329" d="M178 0v1372h641q144 0 244 -55t156.5 -151.5t56.5 -213.5q0 -168 -123 -294q-86 -88 -201 -109q-55 -10 -133 -10h-391v-539h-250zM428 784h399q92 0 147.5 46t55.5 124t-55 125t-148 47h-399v-342z" />
<glyph unicode="Q" horiz-adv-x="1507" d="M178 688q0 319 161 513q162 196 417 196q261 0 418 -196q155 -193 155 -528.5t-182 -527.5l72 -112l-185 -119l-65 104q-103 -43 -224.5 -43t-227 51.5t-180.5 144.5q-159 197 -159 517zM424 686q0 -219 87 -340t241 -121q38 0 71 6l-100 154l178 121l100 -150 q35 53 58.5 144.5t23.5 187.5q0 217 -84 340t-240.5 123t-245.5 -123t-89 -342z" />
<glyph unicode="R" horiz-adv-x="1382" d="M178 0v1372h631q143 0 235 -57q98 -53 155.5 -149.5t57.5 -213.5t-58 -212t-165 -152l252 -588h-274l-221 539h-367v-539h-246zM424 784h389q92 0 145.5 46t53.5 124t-53.5 125t-145.5 47h-389v-342z" />
<glyph unicode="S" horiz-adv-x="1300" d="M96 250l197 153q78 -90 164 -131t209.5 -41t207.5 50.5t84 130.5t-86 123q-111 42 -163 53l-64 18l-63 15l-66 20q-106 25 -166.5 54.5t-103.5 77.5q-86 96 -86 233q0 169 130 275q130 105 341 105q306 0 510 -210l-183 -164q-129 135 -327 135q-104 0 -162.5 -38 t-58.5 -103q0 -58 44 -90q46 -32 178 -61q255 -54 360.5 -107.5t158.5 -144.5t53 -204q0 -209 -192 -321q-147 -92 -336.5 -92t-326 64.5t-253.5 199.5z" />
<glyph unicode="T" horiz-adv-x="1136" d="M53 1130v242h1030v-242h-395v-1130h-239v1130h-396z" />
<glyph unicode="U" horiz-adv-x="1464" d="M178 553v819h246v-819q0 -196 154 -287q69 -41 153 -41t154.5 41t103.5 95.5t42 94.5t9 97v819h246v-819q0 -252 -155.5 -415t-399.5 -163q-240 0 -397 163q-156 162 -156 415z" />
<glyph unicode="V" horiz-adv-x="1386" d="M53 1372h264l377 -1001l375 1001h264l-510 -1372h-264z" />
<glyph unicode="W" horiz-adv-x="1560" d="M53 1372h254l150 -887l202 887h246l211 -887l141 887h250l-245 -1372h-261l-221 920l-217 -920h-260z" />
<glyph unicode="X" horiz-adv-x="1382" d="M96 0l449 723l-410 649h293l260 -420l260 420h295l-405 -649l448 -723h-289l-309 485l-303 -485h-289z" />
<glyph unicode="Y" horiz-adv-x="1507" d="M53 1372h303l400 -559l395 559h303l-577 -813v-559h-246v559z" />
<glyph unicode="Z" horiz-adv-x="1271" d="M96 0v279l781 851h-738v242h1037v-278l-777 -848h777v-246h-1080z" />
<glyph unicode="[" horiz-adv-x="841" d="M193 -215v1587h520v-215h-246v-1157h246v-215h-520z" />
<glyph unicode="\" horiz-adv-x="952" d="M8 1548h277l659 -1724h-276z" />
<glyph unicode="]" horiz-adv-x="841" d="M127 0h248v1157h-248v215h522v-1587h-522v215z" />
<glyph unicode="^" horiz-adv-x="1171" d="M94 750l379 622h223l379 -622h-287l-204 364l-205 -364h-285z" />
<glyph unicode="_" d="M0 -141h1014v-226h-1014v226z" />
<glyph unicode="`" d="M203 1481h354l176 -316h-237z" />
<glyph unicode="a" horiz-adv-x="1015" d="M68 347.5q0 111.5 61 184t153 103.5q82 28 174 28q105 0 222 -36q-10 94 -66 129q-51 32 -113 32h-11q-122 -4 -242 -75l-101 211q188 102 365 102q399 0 399 -420v-606h-231v43q-103 -61 -248 -61q-243 0 -330 187q-32 67 -32 178.5zM289 331q0 -36 23.5 -69t70.5 -49 q37 -13 80 -13q92 0 215 56v154q-121 48 -211 48q-45 0 -83 -12q-48 -16 -71.5 -47.5t-23.5 -67.5z" />
<glyph unicode="b" horiz-adv-x="1048" d="M125 0v1305l246 92v-434q93 57 185 57q55 0 110 -20q130 -45 218 -194q85 -143 85 -336q0 -107 -56.5 -224t-143.5 -188.5t-193 -83.5q-14 -2 -28 -1q-92 0 -177 66v-39h-246zM371 328q61 -111 153 -111q91 0 144 82q55 83 55 201q0 123 -49 202q-47 79 -130 79 q-7 0 -14 -1q-76 -5 -138 -74q-15 -18 -21 -32v-346z" />
<glyph unicode="c" horiz-adv-x="968" d="M82 500q0 227 136 378q133 148 341 148q224 0 371 -188l-156 -203q-33 72 -89 114t-122 42q-109 0 -177.5 -81t-68.5 -209t69 -209t181.5 -81t192.5 127l170 -174q-148 -189 -371 -189q-208 0 -341 149q-136 152 -136 376z" />
<glyph unicode="d" horiz-adv-x="1048" d="M82 496q0 213 118 370q120 160 281 160q68 0 95 -14q37 -17 102 -74v367l252 92v-1397h-252v72q-69 -60 -93 -70q-38 -16 -112 -16t-146.5 41t-126.5 111q-118 149 -118 358zM324 500q0 -119 57 -201t148 -82t149 111v346q-33 53 -68 79.5t-82 26.5t-83.5 -21.5 t-63.5 -58.5q-57 -80 -57 -200z" />
<glyph unicode="e" horiz-adv-x="987" d="M82 500q0 220 124 366q125 150 304 150q188 0 303 -154q80 -99 111 -268q10 -51 10 -98v-72h-610q4 -10 4 -14t4 -21q18 -86 70.5 -136t128 -50t147.5 82l164 -146q-4 -4 -8 -10q-126 -154 -314 -154q-184 0 -311 153t-127 372zM338 616h356q-35 106 -72.5 142.5 t-102.5 36.5t-111 -37t-70 -142z" />
<glyph unicode="f" horiz-adv-x="602" d="M53 760v237h129v125q0 129 59.5 189.5t186.5 60.5q75 0 145 -10v-215q-29 4 -43 4h-30q-43 0 -59.5 -24.5t-16.5 -67.5v-62h149v-237h-149v-760h-242v760h-129z" />
<glyph unicode="g" horiz-adv-x="1058" d="M82 496q0 218 120 380q114 151 253 151q13 0 26 -1q78 -8 105.5 -21.5t50 -31t57.5 -43.5v71h240v-991q0 -118 -10 -159q-24 -107 -103 -203q-50 -60 -126.5 -100t-145.5 -68l-25 -10l-96 217q150 76 208 143.5t58 144.5v107q-47 -51 -93 -79t-126 -29h-4q-78 0 -147 40 q-72 41 -126 113q-116 153 -116 369zM328 496q0 -123 52 -204t140 -81q59 0 96 26.5t78 79.5v357q-41 53 -81 79.5t-93 26.5q-88 0 -140 -81t-52 -203z" />
<glyph unicode="h" horiz-adv-x="1079" d="M125 0v1305l246 92v-467q74 96 231 96q163 0 265 -96t102 -242v-688h-232v598q0 76 -53 129t-131 53q-124 0 -166 -99q-16 -38 -16 -93v-588h-246z" />
<glyph unicode="i" horiz-adv-x="499" d="M125 1275q0 52 36 87t88 35t89 -35t37 -86t-37 -88t-89 -37t-88 36t-36 88zM129 0v1001h246v-1001h-246z" />
<glyph unicode="j" horiz-adv-x="538" d="M0 -221q108 8 140 65q24 43 24 189v968h256v-968q0 -151 -20 -212q-32 -94 -101 -159q-111 -93 -299 -104v221zM164 1275q0 52 37 87t88 35t88 -35t37 -86t-37 -88t-89 -37t-88 36t-36 88z" />
<glyph unicode="k" horiz-adv-x="976" d="M125 0v1305l246 92v-742l264 342h303l-264 -319l274 -678h-246l-196 477l-135 -184v-293h-246z" />
<glyph unicode="l" horiz-adv-x="491" d="M125 0v1294l246 103v-1397h-246z" />
<glyph unicode="m" horiz-adv-x="1656" d="M125 0v1001h246v-81q106 106 252.5 106t253.5 -121q88 71 138 90q82 31 163.5 31t148 -25.5t115.5 -70.5q104 -96 104 -242v-688h-246v598q0 84 -47 133t-127 49q-72 0 -124 -52q-50 -50 -50 -122v-606h-235v598q0 78 -53 132q-51 50 -126 50t-121 -51t-46 -127v-602 h-246z" />
<glyph unicode="n" horiz-adv-x="1083" d="M125 0v1001h246v-81q87 100 235 100q164 0 265.5 -90t101.5 -232v-698h-242v602q0 84 -49 136.5t-133 52.5q-71 0 -127 -59q-51 -52 -51 -130v-602h-246z" />
<glyph unicode="o" horiz-adv-x="1040" d="M82 500q0 219 127 372q127 154 311 154t312 -154q126 -152 126 -372q0 -218 -126 -371q-128 -154 -312 -154q-185 0 -311 154q-127 155 -127 371zM328 500q0 -123 52 -201q55 -82 140 -82q86 0 137.5 82t51.5 201q0 121 -51 200q-53 80 -138 80q-84 0 -140 -80 q-52 -76 -52 -200z" />
<glyph unicode="p" horiz-adv-x="1058" d="M125 -410v1411h246v-71q62 54 91 67q44 19 118.5 19t147.5 -41t128 -111q121 -156 121 -364t-121 -364q-121 -154 -283 -154q-64 0 -92 13q-39 18 -110 77v-389zM371 328q41 -61 72.5 -86t80.5 -25t87 21.5t66 60.5q60 84 60 201q0 121 -60 202q-62 82 -147 82 q-109 0 -159 -129v-327z" />
<glyph unicode="q" horiz-adv-x="1058" d="M82 496q0 208 120 364q56 72 130 114t130 42t81.5 -3t48.5 -13q38 -15 106 -70v71h236v-1325l-236 -90v482q-72 -60 -102 -73q-45 -20 -118 -20t-146.5 42t-129.5 114q-120 156 -120 365zM324 496q0 -121 60 -202q61 -83 154.5 -83t159.5 113v350q-37 59 -75.5 82.5 t-87 23.5t-86 -21.5t-65.5 -58.5q-60 -81 -60 -204z" />
<glyph unicode="r" horiz-adv-x="784" d="M125 0v1001h246v-71q51 51 91 68.5t101 17.5q117 0 193 -58l-78 -235q-51 57 -129 57q-72 0 -125 -53q-38 -27 -50 -107q-3 -20 -3 -32v-588h-246z" />
<glyph unicode="s" horiz-adv-x="933" d="M53 72l92 217q16 -4 53.5 -15.5t83.5 -23.5q127 -33 189 -33q178 0 178 72q0 43 -23 57q-38 22 -150 52q-204 55 -288 122q-110 88 -110 220t105.5 206t283.5 74q200 0 389 -100l-90 -218q-140 82 -295 82q-78 0 -112.5 -15t-34.5 -42.5t7 -41t25 -23.5q39 -22 140 -41 q207 -41 301 -122t94 -221t-106.5 -218t-303.5 -78q-248 0 -428 90z" />
<glyph unicode="t" horiz-adv-x="663" d="M14 766v231h164v308l250 92v-400h207v-231h-207v-395q0 -150 111 -150q37 0 57 12.5t53 40.5l-37 -245q-102 -54 -184 -54q-119 0 -184.5 84t-65.5 226v481h-164z" />
<glyph unicode="u" horiz-adv-x="1079" d="M111 307v690h245v-598q0 -80 47.5 -131t131.5 -51q74 0 131 55t57 123v602h229v-997h-229v78q-96 -64 -128 -75q-49 -17 -124.5 -17t-143 23.5t-115.5 66.5q-101 90 -101 231z" />
<glyph unicode="v" horiz-adv-x="1030" d="M29 1001h245l242 -677l240 677h245l-356 -1001h-260z" />
<glyph unicode="w" horiz-adv-x="1368" d="M29 1001h241l154 -567l129 567h260l135 -563l150 563h241l-280 -1001h-236l-139 606l-139 -606h-238z" />
<glyph unicode="x" horiz-adv-x="1001" d="M0 0l367 563l-285 438h278l140 -221l145 221h275l-279 -438l360 -563h-274l-227 346l-221 -346h-279z" />
<glyph unicode="y" horiz-adv-x="1107" d="M29 1001h250l294 -688l261 688h249l-520 -1382h-250l144 381z" />
<glyph unicode="z" horiz-adv-x="952" d="M43 0v217l506 543h-481v241h847v-196l-534 -569h534v-236h-872z" />
<glyph unicode="{" horiz-adv-x="931" d="M121 473v219h45q121 0 121 135v142q0 414 538 413v-178q-150 -14 -202 -71.5t-52 -184.5v-59q0 -152 -44 -214t-148 -93q104 -29 148 -91.5t44 -214.5v-59q0 -125 52.5 -182t201.5 -72v-178q-539 0 -538 414v139q0 135 -121 135h-45z" />
<glyph unicode="|" horiz-adv-x="577" d="M162 -362v1931h254v-1931h-254z" />
<glyph unicode="}" horiz-adv-x="931" d="M106 -37q150 14 202 71.5t52 182.5v62q0 152 44.5 214t148.5 91q-104 31 -148 93.5t-45 213.5v57q0 127 -52 184.5t-202 71.5v178q539 0 539 -413v-140q0 -135 121 -135h45v-219h-45q-121 0 -121 -135v-141q0 -414 -539 -414v178z" />
<glyph unicode="~" horiz-adv-x="1138" d="M86 623q119 297 309 297q92 0 202 -73t152 -73t66.5 24.5t71.5 114.5l166 -82q-119 -297 -310 -296q-94 0 -202.5 72.5t-150.5 72.5t-66.5 -24.5t-71.5 -114.5z" />
<glyph unicode="&#xa1;" horiz-adv-x="606" d="M182 1245q0 53 35 90t87 37t88 -37t36 -90t-36 -88t-88 -35t-87 35t-35 88zM186 -25v390l68 602h115l59 -596v-396h-242z" />
<glyph unicode="&#xa2;" horiz-adv-x="1232" d="M135 727q0 209 112 365q107 149 288 194v201h245v-201q232 -35 357 -231l-193 -97q-47 57 -104.5 96.5t-150.5 39.5t-149.5 -35t-93.5 -89q-71 -107 -71 -243q0 -155 80 -264q86 -117 209 -117q99 0 145.5 27.5t74 53.5t60.5 58l193 -90q-114 -190 -357 -235v-242h-245 v246q-188 41 -294 189.5t-106 373.5z" />
<glyph unicode="&#xa3;" horiz-adv-x="1357" d="M178 0v201q172 135 197 327h-197v224h160q-18 33 -51 88q-57 106 -58 192q0 174 135.5 268.5t383.5 94.5q301 -1 516 -187l-170 -202q-141 123 -348.5 122.5t-206.5 -133.5q0 -51 48 -131t58 -112h309v-224h-290q-10 -152 -134 -292h705v-236h-1057z" />
<glyph unicode="&#xa4;" horiz-adv-x="1099" d="M74 330l131 125q-66 100 -66 218t66 218l-131 127l110 110l133 -129q104 68 230.5 68t228.5 -68l135 129l113 -110l-135 -127q68 -100 67.5 -218t-67.5 -218l135 -125l-113 -113l-135 129q-102 -66 -228 -65.5t-231 65.5l-133 -129zM295 674q0 -100 72.5 -171t177.5 -71 q104 0 178 70.5t74 171.5q0 100 -74 169.5t-178 69.5t-177 -69.5t-73 -169.5z" />
<glyph unicode="&#xa5;" horiz-adv-x="1386" d="M45 1372h326l186 -325q106 -184 137 -269q45 106 140 269l186 325h321l-512 -840v-96h330v-231h-330v-205h-272v205h-330v231h330v90z" />
<glyph unicode="&#xa6;" horiz-adv-x="514" d="M178 336h156v-735h-156v735zM178 649v733h156v-733h-156z" />
<glyph unicode="&#xa7;" horiz-adv-x="1419" d="M111 580q0 213 221 323q-39 68 -39 172q0 139 110.5 229.5t311.5 90.5q250 0 436 -135l-139 -187q-143 94 -316 94q-141 0 -141 -92q0 -45 56 -73t276.5 -97.5t320 -159t99.5 -253.5q0 -211 -224 -324q41 -63 41 -170q0 -141 -110.5 -230t-335 -89.5t-410.5 133.5 l140 188q141 -96 313 -96q141 0 141 92q0 45 -56 74t-276.5 98.5t-310.5 153.5q-109 96 -108 258zM383 600q0 -74 88 -125q49 -31 203 -81t231 -87q131 53 131 166q0 74 -88 125q-51 29 -203.5 79t-232.5 87q-129 -53 -129 -164z" />
<glyph unicode="&#xa8;" d="M129 1318.5q0 61.5 47 106.5t112 45t111.5 -45t46.5 -106t-48 -107.5t-110 -46.5t-110.5 46t-48.5 107.5zM567 1318.5q0 61.5 48.5 106.5t111.5 45t109.5 -45t46.5 -106t-46 -107.5t-110 -46.5q-63 0 -111.5 46t-48.5 107.5z" />
<glyph unicode="&#xa9;" horiz-adv-x="1693" d="M115 686q0 301 210 505t522 204t522 -204t210 -505t-210 -505t-522 -204t-522 204t-210 505zM246 686q0 -250 172 -416t429 -166t429 166t172 416t-172 416t-429 166t-429 -166t-172 -416zM506 686q0 178 99.5 291t252.5 113q205 0 293 -170l-160 -86q-51 86 -135 86 q-160 0 -160 -228.5t162 -228.5q80 0 146 100l141 -94q-104 -176 -291 -176q-158 0 -253 107.5t-95 285.5z" />
<glyph unicode="&#xaa;" horiz-adv-x="966" d="M98.5 816q-0.5 138 98 210t254.5 72q100 0 170 -33v41q0 109 -130 108.5t-237 -55.5l-86 152q158 84 321 84t258 -78t95 -215v-561h-221v61q-76 -76 -204 -76t-216 72q-102 80 -102.5 218zM322 821q0 -115 137 -114q107 -1 162 79v107q-61 35 -162 35q-137 0 -137 -107z " />
<glyph unicode="&#xab;" horiz-adv-x="1271" d="M61 514l330 514h289l-320 -512l320 -516h-289zM571 514l330 514h291l-322 -512l322 -516h-291z" />
<glyph unicode="&#xac;" horiz-adv-x="1157" d="M111 801v155h936v-563h-162v408h-774z" />
<glyph unicode="&#xad;" horiz-adv-x="1255" d="M111 586v252h1034v-252h-1034z" />
<glyph unicode="&#xae;" horiz-adv-x="1693" d="M115 686q0 301 210 505t522 204t522 -204t210 -505t-210 -505t-522 -204t-522 204t-210 505zM246 686q0 -250 172 -416t429 -166t429 166t172 416t-172 416t-429 166t-429 -166t-172 -416zM551 313v772h371q121 0 197.5 -61t76.5 -180q0 -168 -158 -228l154 -303h-191 l-145 283h-137v-283h-168zM719 739h190q115 1 115 100t-115 99h-190v-199z" />
<glyph unicode="&#xaf;" horiz-adv-x="1003" d="M211 1145v196h582v-196h-582z" />
<glyph unicode="&#xb0;" horiz-adv-x="985" d="M92 1007q0 163 116 275.5t286 112.5t284.5 -112.5t114.5 -276.5t-114.5 -277t-284.5 -113t-286 114t-116 277zM303 1005.5q0 -75.5 55.5 -130t135.5 -54.5t133 53.5t53 131.5t-54.5 131t-133 53t-134 -54.5t-55.5 -130z" />
<glyph unicode="&#xb1;" horiz-adv-x="1085" d="M74 0v156h934v-156h-934zM74 614v154h387v373h166v-373h381v-154h-381v-372h-166v372h-387z" />
<glyph unicode="&#xb2;" horiz-adv-x="657" d="M25 680q4 53 47 106q57 78 196.5 176.5t170 130t30.5 74.5t-31.5 72t-98.5 29t-96.5 -21.5t-52.5 -85.5l-145 17q29 102 98.5 150t206.5 48t205 -54t68 -133t-60 -147q-41 -53 -158.5 -134.5t-150.5 -114.5h373v-113h-602z" />
<glyph unicode="&#xb3;" horiz-adv-x="657" d="M33 862l137 12q20 -55 55 -73q41 -29 104 -29t104.5 37t41.5 86q0 102 -158 102q-12 0 -28 -1t-23 -1l23 101q80 0 113.5 27.5t33.5 65.5t-27.5 61.5t-83.5 23.5t-85 -20.5t-54 -73.5l-139 20q43 98 103.5 137t187.5 39t190.5 -49t63.5 -111q0 -130 -135 -159 q170 -44 170 -180q0 -84 -79 -148.5t-216 -64.5q-261 0 -299 198z" />
<glyph unicode="&#xb4;" d="M281 1165l176 316h354l-295 -316h-235z" />
<glyph unicode="&#xb5;" horiz-adv-x="1140" d="M156 -379v1364h170v-418q0 -225 25.5 -293.5t83 -107.5t132 -39t137 41t86 106.5t23.5 288.5v422h170v-985h-154v119q-53 -76 -110 -109t-142.5 -33t-138.5 27t-112 94v-477h-170z" />
<glyph unicode="&#xb6;" horiz-adv-x="1466" d="M94 942q0 199 139 318q127 113 322 112h731v-1734h-231v1527h-129v-1527h-232v874h-139q-195 0 -328 116t-133 314z" />
<glyph unicode="&#xb7;" horiz-adv-x="544" d="M86 688q0 72 55.5 124t131 52t133 -52t57.5 -124t-57.5 -124t-133.5 -52t-131 52t-55 124z" />
<glyph unicode="&#xb8;" d="M258 -307l41 74q92 -47 191.5 -47.5t99.5 67.5q0 51 -64 51q-33 0 -59 -14l-74 26l56 222h112l-35 -154q29 14 80 14q158 0 158 -139q0 -172 -242 -172q-147 0 -264 72z" />
<glyph unicode="&#xb9;" horiz-adv-x="657" d="M102 1090v114q61 18 134 67.5t120 104.5h105v-696h-144v514q-96 -76 -215 -104z" />
<glyph unicode="&#xba;" horiz-adv-x="995" d="M106 958q0 190 110 313.5t280 123.5t280.5 -123.5t110.5 -313.5t-110.5 -311t-280.5 -121t-280 121t-110 311zM336 959.5q0 -222.5 160 -222.5q78 0 119.5 64.5t41.5 160.5t-42 158t-119 62q-160 0 -160 -222.5z" />
<glyph unicode="&#xbb;" horiz-adv-x="1271" d="M94 0l320 516l-320 512h289l330 -514l-330 -514h-289zM604 0l320 516l-320 512h289l332 -514l-332 -514h-289z" />
<glyph unicode="&#xbc;" horiz-adv-x="2416" d="M135 1171v172q57 0 111.5 27t75.5 64h215v-1311h-256v1048h-146zM176 -614l1491 2048h268l-1495 -2048h-264zM1063 -150l805 846h258v-798h155v-185h-155v-327h-258v327h-805v137zM1430 -102h438v460z" />
<glyph unicode="&#xbd;" horiz-adv-x="2641" d="M135 1171v172q57 0 111.5 27t75.5 64h215v-1311h-256v1048h-146zM176 -614l1491 2048h268l-1495 -2048h-264zM1432 360q23 127 172 240t372 113q272 0 420.5 -120t149 -292t-188.5 -266q-160 -72 -298 -138.5t-232 -158.5q-61 -57 -96 -148h815v-204h-1114q0 215 98 368 q113 176 438 336q137 66 279 131q41 33 41 90q0 92 -84 144.5t-225.5 52.5t-229.5 -90q-29 -29 -63 -90z" />
<glyph unicode="&#xbe;" horiz-adv-x="2979" d="M96 434l250 53q39 -66 72 -96q100 -96 226 -96t206 51q102 63 102 180q0 195 -284 195v205q123 0 166 14q66 23 65.5 102.5t-67 133t-177.5 53.5q-171 0 -237 -123l-250 61q51 90 96 133q145 133 379.5 133.5t375 -114.5t140.5 -279q0 -106 -47 -172q-14 -20 -45 -45 q49 -31 72 -59q71 -89 71 -232q0 -217 -194 -339q-160 -102 -361 -103q-279 0 -448 172q-53 57 -111 172zM739 -614l1491 2048h267l-1493 -2048h-265zM1626 -150l805 846h258v-798h156v-185h-156v-327h-258v327h-805v137zM1993 -102h438v460z" />
<glyph unicode="&#xbf;" horiz-adv-x="1101" d="M96 341.5q0 69.5 10.5 114t35.5 86.5q48 78 180 185q60 47 76 69q24 32 33 63.5t11 41.5t4.5 23.5t3.5 32t3 49.5h206q-6 -141 -14 -171t-14 -51q-42 -86 -95 -132q-8 -7 -36 -31l-47 -50q-111 -96 -111 -206q0 -66 52 -105t155 -39q205 0 221 217h236q-8 -184 -80 -279 q-140 -184 -398 -184q-193 0 -313 107q-57 51 -88 120.5t-31 139zM428 1271q0 54 36 92t89 38t89 -38t36 -92t-36 -90t-89 -36t-89 36t-36 90z" />
<glyph unicode="&#xc0;" horiz-adv-x="1511" d="M53 0l578 1372h250l573 -1372h-264l-135 324h-598l-133 -324h-271zM490 1852h354l176 -316h-237zM563 567h385l-192 463z" />
<glyph unicode="&#xc1;" horiz-adv-x="1511" d="M53 0l578 1372h250l573 -1372h-264l-135 324h-598l-133 -324h-271zM490 1536l176 316h354l-295 -316h-235zM563 567h385l-192 463z" />
<glyph unicode="&#xc2;" horiz-adv-x="1511" d="M53 0l578 1372h250l573 -1372h-264l-135 324h-598l-133 -324h-271zM367 1536l248 316h284l246 -316h-188l-203 148l-203 -148h-184zM563 567h385l-192 463z" />
<glyph unicode="&#xc3;" horiz-adv-x="1511" d="M53 0l578 1372h250l573 -1372h-264l-135 324h-598l-133 -324h-271zM359 1536q0 131 64.5 207t164.5 76t190.5 -49t124.5 -49q51 0 68 92h182q0 -129 -63.5 -205t-163.5 -76t-190.5 49.5t-124.5 49.5q-53 0 -70 -95h-182zM563 567h385l-192 463z" />
<glyph unicode="&#xc4;" horiz-adv-x="1511" d="M53 0l578 1372h250l573 -1372h-264l-135 324h-598l-133 -324h-271zM379 1689.5q0 61.5 47 106.5t112 45t111.5 -45t46.5 -106t-48 -107.5t-110 -46.5t-110.5 46t-48.5 107.5zM563 567h385l-192 463zM817 1689.5q0 61.5 48.5 106.5t111.5 45t109.5 -45t46.5 -106 t-46 -107.5t-110 -46.5q-63 0 -111.5 46t-48.5 107.5z" />
<glyph unicode="&#xc5;" horiz-adv-x="1511" d="M53 0l578 1372h250l573 -1372h-264l-135 324h-598l-133 -324h-271zM481 1797.5q0 113.5 78 189.5t196 76t195.5 -76t77.5 -190t-77.5 -187.5t-195.5 -73.5t-196 74t-78 187.5zM563 567h385l-192 463zM635 1798q0 -49 35 -83.5t85 -34.5t85 34.5t35 83.5t-35 83t-85 34 t-85 -33.5t-35 -83.5z" />
<glyph unicode="&#xc6;" horiz-adv-x="2103" d="M29 0l952 1372h973v-262h-662v-248h367v-258h-367v-342h693v-262h-963v246h-506l-164 -246h-323zM678 485h344v252q0 43 2 152.5t2 134.5q-49 -92 -164 -264z" />
<glyph unicode="&#xc7;" horiz-adv-x="1382" d="M135 688q0 327 156 516q159 193 426 193q166 0 308 -79t222 -224l-217 -117q-29 43 -48 63.5t-48 38.5q-41 33 -101.5 52.5t-135 19.5t-138 -42t-102.5 -107q-72 -121 -72 -327t88 -330t244 -124q88 0 141 29t90 62.5t82 82.5l217 -116q-72 -140 -220 -224 q-142 -80 -293.5 -80t-259 51.5t-183.5 144.5q-156 191 -156 517zM438 -307l41 74q92 -47 191.5 -47.5t99.5 67.5q0 51 -64 51q-33 0 -59 -14l-74 26l56 222h112l-35 -154q29 14 80 14q158 0 158 -139q0 -172 -242 -172q-147 0 -264 72z" />
<glyph unicode="&#xc8;" horiz-adv-x="1300" d="M178 0v1372h1002v-246h-752v-254h410v-251h-410v-375h776v-246h-1026zM385 1852h354l176 -316h-237z" />
<glyph unicode="&#xc9;" horiz-adv-x="1300" d="M178 0v1372h1002v-246h-752v-254h410v-251h-410v-375h776v-246h-1026zM385 1536l176 316h354l-295 -316h-235z" />
<glyph unicode="&#xca;" horiz-adv-x="1300" d="M178 0v1372h1002v-246h-752v-254h410v-251h-410v-375h776v-246h-1026zM260 1536l248 316h284l246 -316h-188l-203 148l-203 -148h-184z" />
<glyph unicode="&#xcb;" horiz-adv-x="1300" d="M178 0v1372h1002v-246h-752v-254h410v-251h-410v-375h776v-246h-1026zM272 1689.5q0 61.5 47 106.5t112 45t111.5 -45t46.5 -106t-48 -107.5t-110 -46.5t-110.5 46t-48.5 107.5zM710 1689.5q0 61.5 48.5 106.5t111.5 45t109.5 -45t46.5 -106t-46 -107.5t-110 -46.5 q-63 0 -111.5 46t-48.5 107.5z" />
<glyph unicode="&#xcc;" horiz-adv-x="602" d="M39 1852h354l176 -316h-237zM178 0v1372h246v-1372h-246z" />
<glyph unicode="&#xcd;" horiz-adv-x="602" d="M39 1536l176 316h354l-295 -316h-235zM178 0v1372h246v-1372h-246z" />
<glyph unicode="&#xce;" horiz-adv-x="602" d="M-86 1536l248 316h284l246 -316h-188l-203 148l-203 -148h-184zM178 0v1372h246v-1372h-246z" />
<glyph unicode="&#xcf;" horiz-adv-x="602" d="M-74 1689.5q0 61.5 47 106.5t112 45t111.5 -45t46.5 -106t-48 -107.5t-110 -46.5t-110.5 46t-48.5 107.5zM178 0v1372h246v-1372h-246zM364 1689.5q0 61.5 48.5 106.5t111.5 45t109.5 -45t46.5 -106t-46 -107.5t-110 -46.5q-63 0 -111.5 46t-48.5 107.5z" />
<glyph unicode="&#xd0;" horiz-adv-x="1431" d="M-4 618v123h156v619h489q164 0 268.5 -23t190.5 -94q225 -176 225 -555q0 -209 -67.5 -358.5t-165 -217t-195 -90t-229.5 -22.5h-516v618h-156zM340 160h301q250 0 346 96q143 132 143 434q0 284 -132 408q-62 57 -136 79.5t-223 22.5h-299v-459h389v-123h-389v-458z" />
<glyph unicode="&#xd1;" horiz-adv-x="1464" d="M178 0v1372h242l629 -905v905h237v-1372h-213l-653 944v-944h-242zM334 1536q0 131 64.5 207t164.5 76t190.5 -49t124.5 -49q51 0 68 92h182q0 -129 -63.5 -205t-163.5 -76t-190.5 49.5t-124.5 49.5q-53 0 -70 -95h-182z" />
<glyph unicode="&#xd2;" horiz-adv-x="1425" d="M135 688q0 329 156 518q158 191 426 191q251 0 411 -195q158 -192 158 -511q0 -159 -40 -291t-114 -226q-155 -199 -415 -199q-283 0 -443 227q-139 198 -139 486zM385 686q0 -219 88 -342t244 -123q177 0 259 153q64 120 64 325.5t-84 328.5t-239 123q-156 0 -244 -123 t-88 -342zM447 1852h354l176 -316h-237z" />
<glyph unicode="&#xd3;" horiz-adv-x="1425" d="M135 688q0 329 156 518q158 191 426 191q251 0 411 -195q158 -192 158 -511q0 -159 -40 -291t-114 -226q-155 -199 -415 -199q-283 0 -443 227q-139 198 -139 486zM385 686q0 -219 88 -342t244 -123q177 0 259 153q64 120 64 325.5t-84 328.5t-239 123q-156 0 -244 -123 t-88 -342zM447 1536l176 316h354l-295 -316h-235z" />
<glyph unicode="&#xd4;" horiz-adv-x="1425" d="M135 688q0 329 156 518q158 191 426 191q251 0 411 -195q158 -192 158 -511q0 -159 -40 -291t-114 -226q-155 -199 -415 -199q-283 0 -443 227q-139 198 -139 486zM324 1536l248 316h284l246 -316h-188l-203 148l-203 -148h-184zM385 686q0 -219 88 -342t244 -123 q177 0 259 153q64 120 64 325.5t-84 328.5t-239 123q-156 0 -244 -123t-88 -342z" />
<glyph unicode="&#xd5;" horiz-adv-x="1425" d="M135 688q0 329 156 518q158 191 426 191q251 0 411 -195q158 -192 158 -511q0 -159 -40 -291t-114 -226q-155 -199 -415 -199q-283 0 -443 227q-139 198 -139 486zM316 1536q0 131 64.5 207t164.5 76t190.5 -49t124.5 -49q51 0 68 92h182q0 -129 -63.5 -205t-163.5 -76 t-190.5 49.5t-124.5 49.5q-53 0 -70 -95h-182zM385 686q0 -219 88 -342t244 -123q177 0 259 153q64 120 64 325.5t-84 328.5t-239 123q-156 0 -244 -123t-88 -342z" />
<glyph unicode="&#xd6;" horiz-adv-x="1425" d="M135 688q0 329 156 518q158 191 426 191q251 0 411 -195q158 -192 158 -511q0 -159 -40 -291t-114 -226q-155 -199 -415 -199q-283 0 -443 227q-139 198 -139 486zM336 1689.5q0 61.5 47 106.5t112 45t111.5 -45t46.5 -106t-48 -107.5t-110 -46.5t-110.5 46t-48.5 107.5z M385 686q0 -219 88 -342t244 -123q177 0 259 153q64 120 64 325.5t-84 328.5t-239 123q-156 0 -244 -123t-88 -342zM774 1689.5q0 61.5 48.5 106.5t111.5 45t109.5 -45t46.5 -106t-46 -107.5t-110 -46.5q-63 0 -111.5 46t-48.5 107.5z" />
<glyph unicode="&#xd7;" horiz-adv-x="1157" d="M156 381l305 291l-305 291l116 112l303 -289l310 289l110 -112l-301 -291l301 -289l-110 -115l-310 291l-303 -291z" />
<glyph unicode="&#xd8;" horiz-adv-x="1425" d="M123 27l1149 1370q14 16 30.5 16t27.5 -10q31 -28 3 -60l-1149 -1370q-14 -16 -30.5 -16t-27.5 10q-30 27 -3 60zM135 688q0 329 156 518q158 191 426 191q251 0 411 -195q158 -192 158 -511q0 -159 -40 -291t-114 -226q-155 -199 -415 -199q-283 0 -443 227 q-139 198 -139 486zM385 686q0 -219 88 -342t244 -123q177 0 259 153q64 120 64 325.5t-84 328.5t-239 123q-156 0 -244 -123t-88 -342z" />
<glyph unicode="&#xd9;" horiz-adv-x="1464" d="M178 553v819h246v-819q0 -196 154 -287q69 -41 153 -41t154.5 41t103.5 95.5t42 94.5t9 97v819h246v-819q0 -252 -155.5 -415t-399.5 -163q-240 0 -397 163q-156 162 -156 415zM467 1852h354l176 -316h-237z" />
<glyph unicode="&#xda;" horiz-adv-x="1464" d="M178 553v819h246v-819q0 -196 154 -287q69 -41 153 -41t154.5 41t103.5 95.5t42 94.5t9 97v819h246v-819q0 -252 -155.5 -415t-399.5 -163q-240 0 -397 163q-156 162 -156 415zM467 1536l176 316h354l-295 -316h-235z" />
<glyph unicode="&#xdb;" horiz-adv-x="1464" d="M178 553v819h246v-819q0 -196 154 -287q69 -41 153 -41t154.5 41t103.5 95.5t42 94.5t9 97v819h246v-819q0 -252 -155.5 -415t-399.5 -163q-240 0 -397 163q-156 162 -156 415zM342 1536l248 316h284l246 -316h-188l-203 148l-203 -148h-184z" />
<glyph unicode="&#xdc;" horiz-adv-x="1464" d="M178 553v819h246v-819q0 -196 154 -287q69 -41 153 -41t154.5 41t103.5 95.5t42 94.5t9 97v819h246v-819q0 -252 -155.5 -415t-399.5 -163q-240 0 -397 163q-156 162 -156 415zM354 1689.5q0 61.5 47 106.5t112 45t111.5 -45t46.5 -106t-48 -107.5t-110 -46.5t-110.5 46 t-48.5 107.5zM792 1689.5q0 61.5 48.5 106.5t111.5 45t109.5 -45t46.5 -106t-46 -107.5t-110 -46.5q-63 0 -111.5 46t-48.5 107.5z" />
<glyph unicode="&#xdd;" horiz-adv-x="1507" d="M53 1372h303l400 -559l395 559h303l-577 -813v-559h-246v559zM488 1536l176 316h354l-295 -316h-235z" />
<glyph unicode="&#xde;" horiz-adv-x="1320" d="M152 0v1360h188v-277h346q143 0 217 -14q209 -28 290 -193q42 -85 42 -186q0 -172 -115.5 -293t-417.5 -121h-362v-276h-188zM340 436h367q182 0 258.5 64.5t76.5 183.5q0 84 -45 145.5t-106 77.5t-189 17h-362v-488z" />
<glyph unicode="&#xdf;" horiz-adv-x="1187" d="M135 -379v1401q0 401 430 401q186 0 309 -96t123 -266q0 -211 -188 -273q297 -57 297 -354q0 -434 -492 -434h-45v246h37q217 0 217 188q0 219 -241 219h-13v236h11q133 0 133 139t-152 139q-84 0 -114.5 -38.5t-30.5 -120.5v-1252z" />
<glyph unicode="&#xe0;" horiz-adv-x="1015" d="M68 347.5q0 111.5 61 184t153 103.5q175 59 396 -8q-10 94 -65.5 129t-124.5 32q-122 -4 -242 -75l-101 211q188 102 365 102q399 0 399 -420v-606h-231v43q-103 -61 -248 -61q-243 0 -330 187q-32 67 -32 178.5zM242 1481h354l176 -316h-237zM289 331q0 -36 23.5 -69 t70.5 -49q114 -39 295 43v154q-181 72 -294 36q-48 -16 -71.5 -47.5t-23.5 -67.5z" />
<glyph unicode="&#xe1;" horiz-adv-x="1015" d="M68 347.5q0 111.5 61 184t153 103.5q175 59 396 -8q-10 94 -65.5 129t-124.5 32q-122 -4 -242 -75l-101 211q188 102 365 102q399 0 399 -420v-606h-231v43q-103 -61 -248 -61q-243 0 -330 187q-32 67 -32 178.5zM246 1165l176 316h354l-295 -316h-235zM289 331 q0 -36 23.5 -69t70.5 -49q114 -39 295 43v154q-181 72 -294 36q-48 -16 -71.5 -47.5t-23.5 -67.5z" />
<glyph unicode="&#xe2;" horiz-adv-x="1015" d="M68 347.5q0 111.5 61 184t153 103.5q175 59 396 -8q-10 94 -65.5 129t-124.5 32q-122 -4 -242 -75l-101 211q188 102 365 102q399 0 399 -420v-606h-231v43q-103 -61 -248 -61q-243 0 -330 187q-32 67 -32 178.5zM119 1165l248 316h284l246 -316h-188l-203 148l-203 -148 h-184zM289 331q0 -36 23.5 -69t70.5 -49q114 -39 295 43v154q-181 72 -294 36q-48 -16 -71.5 -47.5t-23.5 -67.5z" />
<glyph unicode="&#xe3;" horiz-adv-x="1015" d="M68 347.5q0 111.5 61 184t153 103.5q175 59 396 -8q-10 94 -65.5 129t-124.5 32q-122 -4 -242 -75l-101 211q188 102 365 102q399 0 399 -420v-606h-231v43q-103 -61 -248 -61q-243 0 -330 187q-32 67 -32 178.5zM113 1165q0 131 64.5 207t164.5 76t190.5 -49t124.5 -49 q51 0 68 92h182q0 -129 -63.5 -205t-163.5 -76t-190.5 49.5t-124.5 49.5q-53 0 -70 -95h-182zM289 331q0 -36 23.5 -69t70.5 -49q114 -39 295 43v154q-181 72 -294 36q-48 -16 -71.5 -47.5t-23.5 -67.5z" />
<glyph unicode="&#xe4;" horiz-adv-x="1015" d="M68 347.5q0 111.5 61 184t153 103.5q175 59 396 -8q-10 94 -65.5 129t-124.5 32q-122 -4 -242 -75l-101 211q188 102 365 102q399 0 399 -420v-606h-231v43q-103 -61 -248 -61q-243 0 -330 187q-32 67 -32 178.5zM131 1318.5q0 61.5 47 106.5t112 45t111.5 -45t46.5 -106 t-48 -107.5t-110 -46.5t-110.5 46t-48.5 107.5zM289 331q0 -36 23.5 -69t70.5 -49q114 -39 295 43v154q-181 72 -294 36q-48 -16 -71.5 -47.5t-23.5 -67.5zM569 1318.5q0 61.5 48.5 106.5t111.5 45t109.5 -45t46.5 -106t-46 -107.5t-110 -46.5q-63 0 -111.5 46t-48.5 107.5z " />
<glyph unicode="&#xe5;" horiz-adv-x="1015" d="M68 347.5q0 111.5 61 184t153 103.5q175 59 396 -8q-10 94 -65.5 129t-124.5 32q-122 -4 -242 -75l-101 211q188 102 365 102q399 0 399 -420v-606h-231v43q-103 -61 -248 -61q-243 0 -330 187q-32 67 -32 178.5zM233 1426.5q0 113.5 78 189.5t196 76t195.5 -76 t77.5 -190t-77.5 -187.5t-195.5 -73.5t-196 74t-78 187.5zM289 331q0 -36 23.5 -69t70.5 -49q114 -39 295 43v154q-181 72 -294 36q-48 -16 -71.5 -47.5t-23.5 -67.5zM387 1427q0 -49 35 -83.5t85 -34.5t85 34.5t35 83.5t-35 83t-85 34t-85 -33.5t-35 -83.5z" />
<glyph unicode="&#xe6;" horiz-adv-x="1708" d="M86 339q0 171 120 259t310 88q121 0 205 -41v51q0 57 -39 94t-113 37q-160 0 -290 -69l-109 188q186 104 397 104.5t322 -118.5q115 119 285 119q207 0 329 -160q117 -148 117 -377q0 -47 -4 -86h-635q6 -98 69.5 -146t165 -48.5t166.5 71.5l199 -160 q-63 -78 -167.5 -123t-213.5 -45q-238 0 -373 158q-145 -158 -346 -158q-162 0 -278.5 95.5t-116.5 266.5zM365 344q0 -137 161 -137q138 0 195 94v131q-70 43 -195 43q-162 0 -161 -131zM985 631h365q-6 78 -55.5 131t-129.5 53t-126 -52t-54 -132z" />
<glyph unicode="&#xe7;" horiz-adv-x="968" d="M82 500q0 227 136 378q133 148 341 148q224 0 371 -188l-156 -203q-33 72 -89 114t-122 42q-109 0 -177.5 -81t-68.5 -209t69 -209t181.5 -81t192.5 127l170 -174q-148 -189 -371 -189q-208 0 -341 149q-136 152 -136 376zM233 -307l41 74q92 -47 191.5 -47.5t99.5 67.5 q0 51 -64 51q-33 0 -59 -14l-74 26l56 222h112l-35 -154q29 14 80 14q158 0 158 -139q0 -172 -242 -172q-147 0 -264 72z" />
<glyph unicode="&#xe8;" horiz-adv-x="987" d="M82 500q0 220 124 366q125 150 304 150q188 0 303 -154q80 -99 111 -268q10 -51 10 -98v-72h-610q4 -10 4 -14t4 -21q18 -86 70.5 -136t128 -50t147.5 82l164 -146q-4 -4 -8 -10q-126 -154 -314 -154q-184 0 -311 153t-127 372zM228 1481h354l176 -316h-237zM338 616h356 q-35 106 -72.5 142.5t-102.5 36.5t-111 -37t-70 -142z" />
<glyph unicode="&#xe9;" horiz-adv-x="987" d="M82 500q0 220 124 366q125 150 304 150q188 0 303 -154q80 -99 111 -268q10 -51 10 -98v-72h-610q4 -10 4 -14t4 -21q18 -86 70.5 -136t128 -50t147.5 82l164 -146q-4 -4 -8 -10q-126 -154 -314 -154q-184 0 -311 153t-127 372zM232 1165l176 316h354l-295 -316h-235z M338 616h356q-35 106 -72.5 142.5t-102.5 36.5t-111 -37t-70 -142z" />
<glyph unicode="&#xea;" horiz-adv-x="987" d="M82 500q0 220 124 366q125 150 304 150q188 0 303 -154q80 -99 111 -268q10 -51 10 -98v-72h-610q4 -10 4 -14t4 -21q18 -86 70.5 -136t128 -50t147.5 82l164 -146q-4 -4 -8 -10q-126 -154 -314 -154q-184 0 -311 153t-127 372zM107 1165l248 316h284l246 -316h-188 l-203 148l-203 -148h-184zM338 616h356q-35 106 -72.5 142.5t-102.5 36.5t-111 -37t-70 -142z" />
<glyph unicode="&#xeb;" horiz-adv-x="987" d="M82 500q0 220 124 366q125 150 304 150q188 0 303 -154q80 -99 111 -268q10 -51 10 -98v-72h-610q4 -10 4 -14t4 -21q18 -86 70.5 -136t128 -50t147.5 82l164 -146q-4 -4 -8 -10q-126 -154 -314 -154q-184 0 -311 153t-127 372zM119 1318.5q0 61.5 47 106.5t112 45 t111.5 -45t46.5 -106t-48 -107.5t-110 -46.5t-110.5 46t-48.5 107.5zM338 616h356q-35 106 -72.5 142.5t-102.5 36.5t-111 -37t-70 -142zM557 1318.5q0 61.5 48.5 106.5t111.5 45t109.5 -45t46.5 -106t-46 -107.5t-110 -46.5q-63 0 -111.5 46t-48.5 107.5z" />
<glyph unicode="&#xec;" horiz-adv-x="499" d="M-12 1481h354l176 -316h-237zM129 0v1001h246v-1001h-246z" />
<glyph unicode="&#xed;" horiz-adv-x="499" d="M-12 1165l176 316h354l-295 -316h-235zM129 0v1001h246v-1001h-246z" />
<glyph unicode="&#xee;" horiz-adv-x="499" d="M-137 1165l248 316h284l246 -316h-188l-203 148l-203 -148h-184zM129 0v1001h246v-1001h-246z" />
<glyph unicode="&#xef;" horiz-adv-x="499" d="M-125 1318.5q0 61.5 47 106.5t112 45t111.5 -45t46.5 -106t-48 -107.5t-110 -46.5t-110.5 46t-48.5 107.5zM129 0v1001h246v-1001h-246zM313 1318.5q0 61.5 48.5 106.5t111.5 45t109.5 -45t46.5 -106t-46 -107.5t-110 -46.5q-63 0 -111.5 46t-48.5 107.5z" />
<glyph unicode="&#xf0;" horiz-adv-x="1099" d="M72 499q0 224 122.5 355t313.5 131q55 0 98 -11t105 -44q-33 70 -58.5 106.5t-77.5 91.5l-266 -116l-43 96l234 100q-95 82 -201 152h209q68 -49 121 -94l205 94l45 -94l-168 -78q313 -340 313 -705q0 -236 -136 -371t-343 -135q-246 0 -385 179q-88 119 -88 343z M250 482.5q0 -187.5 84 -277.5t209 -90t212 95.5t87 277.5t-87 275t-215 93t-209 -93t-81 -280.5z" />
<glyph unicode="&#xf1;" horiz-adv-x="1083" d="M125 0v1001h246v-81q87 100 235 100q164 0 265.5 -90t101.5 -232v-698h-242v602q0 84 -49 136.5t-133 52.5q-71 0 -127 -59q-51 -52 -51 -130v-602h-246zM144 1165q0 131 64.5 207t164.5 76t190.5 -49t124.5 -49q51 0 68 92h182q0 -129 -63.5 -205t-163.5 -76 t-190.5 49.5t-124.5 49.5q-53 0 -70 -95h-182z" />
<glyph unicode="&#xf2;" horiz-adv-x="1040" d="M82 500q0 219 127 372q127 154 311 154t312 -154q126 -152 126 -372q0 -218 -126 -371q-128 -154 -312 -154q-185 0 -311 154q-127 155 -127 371zM254 1481h354l176 -316h-237zM328 500q0 -123 52 -201q55 -82 140 -82q86 0 137.5 82t51.5 201q0 121 -51 200 q-53 80 -138 80q-84 0 -140 -80q-52 -76 -52 -200z" />
<glyph unicode="&#xf3;" horiz-adv-x="1040" d="M82 500q0 219 127 372q127 154 311 154t312 -154q126 -152 126 -372q0 -218 -126 -371q-128 -154 -312 -154q-185 0 -311 154q-127 155 -127 371zM258 1165l176 316h354l-295 -316h-235zM328 500q0 -123 52 -201q55 -82 140 -82q86 0 137.5 82t51.5 201q0 121 -51 200 q-53 80 -138 80q-84 0 -140 -80q-52 -76 -52 -200z" />
<glyph unicode="&#xf4;" horiz-adv-x="1040" d="M82 500q0 219 127 372q127 154 311 154t312 -154q126 -152 126 -372q0 -218 -126 -371q-128 -154 -312 -154q-185 0 -311 154q-127 155 -127 371zM131 1165l248 316h284l246 -316h-188l-203 148l-203 -148h-184zM328 500q0 -123 52 -201q55 -82 140 -82q86 0 137.5 82 t51.5 201q0 121 -51 200q-53 80 -138 80q-84 0 -140 -80q-52 -76 -52 -200z" />
<glyph unicode="&#xf5;" horiz-adv-x="1040" d="M82 500q0 219 127 372q127 154 311 154t312 -154q126 -152 126 -372q0 -218 -126 -371q-128 -154 -312 -154q-185 0 -311 154q-127 155 -127 371zM123 1165q0 131 64.5 207t164.5 76t190.5 -49t124.5 -49q51 0 68 92h182q0 -129 -63.5 -205t-163.5 -76t-190.5 49.5 t-124.5 49.5q-53 0 -70 -95h-182zM328 500q0 -123 52 -201q55 -82 140 -82q86 0 137.5 82t51.5 201q0 121 -51 200q-53 80 -138 80q-84 0 -140 -80q-52 -76 -52 -200z" />
<glyph unicode="&#xf6;" horiz-adv-x="1040" d="M82 500q0 219 127 372q127 154 311 154t312 -154q126 -152 126 -372q0 -218 -126 -371q-128 -154 -312 -154q-185 0 -311 154q-127 155 -127 371zM143 1318.5q0 61.5 47 106.5t112 45t111.5 -45t46.5 -106t-48 -107.5t-110 -46.5t-110.5 46t-48.5 107.5zM328 500 q0 -123 52 -201q55 -82 140 -82q86 0 137.5 82t51.5 201q0 121 -51 200q-53 80 -138 80q-84 0 -140 -80q-52 -76 -52 -200zM581 1318.5q0 61.5 48.5 106.5t111.5 45t109.5 -45t46.5 -106t-46 -107.5t-110 -46.5q-63 0 -111.5 46t-48.5 107.5z" />
<glyph unicode="&#xf7;" horiz-adv-x="1085" d="M74 594v156h934v-156h-934zM444 297v188h197v-188h-197zM444 854v193h197v-193h-197z" />
<glyph unicode="&#xf8;" horiz-adv-x="1040" d="M68 27l888 999q14 16 31 16t28 -10q30 -28 3 -59l-889 -1000q-14 -16 -30.5 -16t-28.5 10q-31 27 -2 60zM82 500q0 219 127 372q127 154 311 154t312 -154q126 -152 126 -372q0 -218 -126 -371q-128 -154 -312 -154q-185 0 -311 154q-127 155 -127 371zM328 500 q0 -123 52 -201q55 -82 140 -82q86 0 137.5 82t51.5 201q0 121 -51 200q-53 80 -138 80q-84 0 -140 -80q-52 -76 -52 -200z" />
<glyph unicode="&#xf9;" horiz-adv-x="1079" d="M111 307v690h245v-598q0 -80 47.5 -131t131.5 -51q74 0 131 55t57 123v602h229v-997h-229v78q-96 -64 -128 -75q-49 -17 -124.5 -17t-143 23.5t-115.5 66.5q-101 90 -101 231zM275 1481h354l176 -316h-237z" />
<glyph unicode="&#xfa;" horiz-adv-x="1079" d="M111 307v690h245v-598q0 -80 47.5 -131t131.5 -51q74 0 131 55t57 123v602h229v-997h-229v78q-96 -64 -128 -75q-49 -17 -124.5 -17t-143 23.5t-115.5 66.5q-101 90 -101 231zM277 1165l176 316h354l-295 -316h-235z" />
<glyph unicode="&#xfb;" horiz-adv-x="1079" d="M111 307v690h245v-598q0 -80 47.5 -131t131.5 -51q74 0 131 55t57 123v602h229v-997h-229v78q-96 -64 -128 -75q-49 -17 -124.5 -17t-143 23.5t-115.5 66.5q-101 90 -101 231zM150 1165l248 316h284l246 -316h-188l-203 148l-203 -148h-184z" />
<glyph unicode="&#xfc;" horiz-adv-x="1079" d="M111 307v690h245v-598q0 -80 47.5 -131t131.5 -51q74 0 131 55t57 123v602h229v-997h-229v78q-96 -64 -128 -75q-49 -17 -124.5 -17t-143 23.5t-115.5 66.5q-101 90 -101 231zM162 1318.5q0 61.5 47 106.5t112 45t111.5 -45t46.5 -106t-48 -107.5t-110 -46.5t-110.5 46 t-48.5 107.5zM600 1318.5q0 61.5 48.5 106.5t111.5 45t109.5 -45t46.5 -106t-46 -107.5t-110 -46.5q-63 0 -111.5 46t-48.5 107.5z" />
<glyph unicode="&#xfd;" horiz-adv-x="1107" d="M29 1001h250l294 -688l261 688h249l-520 -1382h-250l144 381zM289 1165l176 316h354l-295 -316h-235z" />
<glyph unicode="&#xfe;" horiz-adv-x="1099" d="M129 -379v1739h176v-479q72 72 133.5 99.5t171 27.5t210 -65.5t152.5 -183.5t52 -265.5t-58.5 -266t-165 -184.5t-206 -66t-158.5 28t-131 97v-481h-176zM289 487q0 -190 80 -280t194 -90q115 0 199 93t84 286.5t-82 287t-195 93.5t-196.5 -100t-83.5 -290z" />
<glyph unicode="&#xff;" horiz-adv-x="1107" d="M29 1001h250l294 -688l261 688h249l-520 -1382h-250l144 381zM176 1318.5q0 61.5 47 106.5t112 45t111.5 -45t46.5 -106t-48 -107.5t-110 -46.5t-110.5 46t-48.5 107.5zM614 1318.5q0 61.5 48.5 106.5t111.5 45t109.5 -45t46.5 -106t-46 -107.5t-110 -46.5 q-63 0 -111.5 46t-48.5 107.5z" />
<glyph unicode="&#x152;" horiz-adv-x="2138" d="M106 686q0 317 166 513t451 196q225 0 340 -146v123h926v-268h-682v-238h387v-266h-387v-332h710v-268h-954v123q-111 -145 -340 -146q-285 0 -451 196t-166 513zM399 686q0 -197 80 -315.5t244 -118.5t244 118.5t80 315.5t-80 315.5t-244 118.5t-244 -119t-80 -315z" />
<glyph unicode="&#x153;" horiz-adv-x="1742" d="M82 514q0 236 135 386.5t349 150.5t321 -152q127 152 327.5 152t323.5 -160q117 -148 117 -377q0 -47 -4 -86h-635q6 -98 69.5 -146t165 -48.5t166.5 71.5l197 -160q-61 -78 -166 -123t-215 -45q-225 0 -348 148q-102 -147 -317.5 -147.5t-350.5 150.5t-135 386zM365 514 q0 -125 50 -200t146 -74q96 0 147.5 78.5t51.5 198.5t-50.5 197t-147.5 77t-147 -76t-50 -201zM1020 631h364q-6 78 -55 131t-129 53t-126 -52t-54 -132z" />
<glyph unicode="&#x178;" horiz-adv-x="1507" d="M53 1372h303l400 -559l395 559h303l-577 -813v-559h-246v559zM377 1689.5q0 61.5 47 106.5t112 45t111.5 -45t46.5 -106t-48 -107.5t-110 -46.5t-110.5 46t-48.5 107.5zM815 1689.5q0 61.5 48.5 106.5t111.5 45t109.5 -45t46.5 -106t-46 -107.5t-110 -46.5 q-63 0 -111.5 46t-48.5 107.5z" />
<glyph unicode="&#x2c6;" d="M117 1165l248 316h284l246 -316h-188l-203 148l-203 -148h-184z" />
<glyph unicode="&#x2dc;" d="M115 1165q0 131 64.5 207t164.5 76t190.5 -49t124.5 -49q51 0 68 92h182q0 -129 -63.5 -205t-163.5 -76t-190.5 49.5t-124.5 49.5q-53 0 -70 -95h-182z" />
<glyph unicode="&#x2000;" horiz-adv-x="1031" />
<glyph unicode="&#x2001;" horiz-adv-x="2063" />
<glyph unicode="&#x2002;" horiz-adv-x="1031" />
<glyph unicode="&#x2003;" horiz-adv-x="2063" />
<glyph unicode="&#x2004;" horiz-adv-x="687" />
<glyph unicode="&#x2005;" horiz-adv-x="515" />
<glyph unicode="&#x2006;" horiz-adv-x="343" />
<glyph unicode="&#x2007;" horiz-adv-x="343" />
<glyph unicode="&#x2008;" horiz-adv-x="257" />
<glyph unicode="&#x2009;" horiz-adv-x="412" />
<glyph unicode="&#x200a;" horiz-adv-x="114" />
<glyph unicode="&#x2010;" horiz-adv-x="567" d="M43 553v246h481v-246h-481z" />
<glyph unicode="&#x2011;" horiz-adv-x="567" d="M43 553v246h481v-246h-481z" />
<glyph unicode="&#x2012;" horiz-adv-x="567" d="M43 553v246h481v-246h-481z" />
<glyph unicode="&#x2013;" d="M111 586v252h807v-252h-807z" />
<glyph unicode="&#x2014;" horiz-adv-x="1255" d="M111 586v252h1034v-252h-1034z" />
<glyph unicode="&#x2018;" horiz-adv-x="569" d="M88 821l166 551h192l-28 -551h-330z" />
<glyph unicode="&#x2019;" horiz-adv-x="569" d="M123 821l29 551h329l-166 -551h-192z" />
<glyph unicode="&#x201a;" horiz-adv-x="569" d="M123 -219l29 551h329l-166 -551h-192z" />
<glyph unicode="&#x201c;" horiz-adv-x="1097" d="M88 821l166 551h192l-28 -551h-330zM616 821l166 551h193l-29 -551h-330z" />
<glyph unicode="&#x201d;" horiz-adv-x="1097" d="M123 821l29 551h329l-166 -551h-192zM653 821l27 551h332l-166 -551h-193z" />
<glyph unicode="&#x201e;" horiz-adv-x="1097" d="M123 -219l29 551h329l-166 -551h-192zM653 -219l27 551h332l-166 -551h-193z" />
<glyph unicode="&#x2022;" horiz-adv-x="993" d="M131 718q0 149 105.5 253t260.5 104t259 -104t104 -252.5t-104.5 -251t-259 -102.5t-260 102t-105.5 251z" />
<glyph unicode="&#x2026;" horiz-adv-x="1652" d="M86 163q0 75 56.5 129t133 54t134 -54t57.5 -129t-57.5 -130.5t-134.5 -55.5t-133 55.5t-56 130.5zM637 163q0 75 56.5 129t133 54t134 -54t57.5 -129t-57.5 -130.5t-134.5 -55.5t-133 55.5t-56 130.5zM1188 163q0 75 56 129t133 54t134.5 -54t57.5 -129t-57.5 -130.5 t-134.5 -55.5t-133 55.5t-56 130.5z" />
<glyph unicode="&#x202f;" horiz-adv-x="412" />
<glyph unicode="&#x2039;" horiz-adv-x="761" d="M61 514l330 514h289l-320 -512l320 -516h-289z" />
<glyph unicode="&#x203a;" horiz-adv-x="761" d="M82 0l319 514l-319 514h289l329 -512l-329 -516h-289z" />
<glyph unicode="&#x205f;" horiz-adv-x="515" />
<glyph unicode="&#x20ac;" horiz-adv-x="1099" d="M-29 498l29 123h102q-4 39 -4 71v51h-127l29 123h111q59 303 315 434q154 82 338 82t305 -73l-39 -174q-114 96 -272 96q-256 0 -385 -205q-55 -82 -68 -160h664l-29 -123h-645q-6 -20 -6 -64t6 -58h620l-26 -123h-576q43 -213 195 -303q115 -66 242 -66q182 0 280 92 v-190q-119 -53 -264 -54q-440 0 -592 349q-31 70 -51 172h-152z" />
<glyph unicode="&#x2122;" horiz-adv-x="1681" d="M39 1212v160h590v-160h-199v-612h-192v612h-199zM762 600v772h190l172 -334q25 -47 58 -127q12 37 55 127l170 334h192v-772h-180v383q0 12 1 42t1 44q-2 -12 -35 -76l-208 -418l-205 418q-8 18 -35 74q4 -55 4 -84v-383h-180z" />
<glyph unicode="&#xe000;" horiz-adv-x="1003" d="M0 0v1004h1004v-1004h-1004z" />
</font>
</defs>
</svg>
